<?xml version="1.0" standalone="no"?>
<!DOCTYPE svg PUBLIC "-//W3C//DTD SVG 20010904//EN"
 "http://www.w3.org/TR/2001/REC-SVG-20010904/DTD/svg10.dtd">
<svg version="1.0" xmlns="http://www.w3.org/2000/svg"
 width="160.000000pt" height="160.000000pt" viewBox="0 0 160.000000 160.000000"
 preserveAspectRatio="xMidYMid meet">
<metadata>
Created by potrace 1.11, written by Peter Selinger 2001-2013
</metadata>
<g transform="translate(0.000000,160.000000) scale(0.100000,-0.100000)"
fill="#000000" stroke="none">
<path d="M675 1528 c-120 -16 -263 -71 -360 -139 -198 -138 -312 -391 -256
-569 45 -143 131 -201 344 -235 20 -3 37 -7 37 -8 0 -1 -7 -36 -16 -77 -21
-101 -24 -123 -29 -207 -3 -62 0 -77 18 -105 39 -58 119 -90 258 -103 181 -18
335 -1 435 46 51 24 66 37 83 71 11 23 18 45 15 49 -3 5 -7 39 -9 76 -3 38 -7
79 -10 93 -3 14 -9 50 -14 80 -5 30 -11 62 -13 70 -2 10 9 16 37 21 94 15 121
22 138 30 9 5 17 7 17 4 0 -11 76 34 107 64 167 160 88 494 -162 688 -76 58
-225 125 -312 139 -15 2 -39 7 -53 10 -40 10 -190 11 -255 2z"/>
</g>
</svg>
